<mxfile host="app.diagrams.net" modified="2024-04-18T23:44:20.114Z" agent="Mozilla/5.0 (Windows NT 10.0; Win64; x64; rv:124.0) Gecko/20100101 Firefox/124.0" etag="41BF6X4egu6cuM-GenBS" version="24.2.5" type="device">
  <diagram id="R2lEEEUBdFMjLlhIrx00" name="Page-1">
    <mxGraphModel dx="1434" dy="774" grid="1" gridSize="10" guides="0" tooltips="1" connect="0" arrows="1" fold="1" page="1" pageScale="1" pageWidth="850" pageHeight="1100" math="0" shadow="0" extFonts="Permanent Marker^https://fonts.googleapis.com/css?family=Permanent+Marker">
      <root>
        <mxCell id="0" />
        <mxCell id="1" parent="0" />
        <mxCell id="ZalBxmQH-GRY2DC9P5CH-5" value="Customer" style="swimlane;childLayout=stackLayout;horizontal=1;startSize=50;horizontalStack=0;rounded=1;fontSize=14;fontStyle=0;strokeWidth=2;resizeParent=0;resizeLast=1;shadow=0;dashed=0;align=center;arcSize=4;whiteSpace=wrap;html=1;" parent="1" vertex="1">
          <mxGeometry x="120" y="130" width="160" height="140" as="geometry" />
        </mxCell>
        <mxCell id="ZalBxmQH-GRY2DC9P5CH-7" value="&lt;div style=&quot;font-size: 13px;&quot;&gt;&lt;b style=&quot;background-color: initial;&quot;&gt;&lt;u&gt;&lt;font style=&quot;font-size: 13px;&quot;&gt;customer id&lt;/font&gt;&lt;/u&gt;&lt;/b&gt;&lt;/div&gt;&lt;div style=&quot;font-size: 13px;&quot;&gt;&lt;span style=&quot;background-color: initial;&quot;&gt;&lt;font style=&quot;font-size: 13px;&quot;&gt;name&lt;br&gt;&lt;/font&gt;&lt;/span&gt;&lt;/div&gt;&lt;div style=&quot;font-size: 13px;&quot;&gt;password&lt;/div&gt;&lt;div&gt;contact&lt;/div&gt;&lt;div&gt;address&lt;/div&gt;&lt;div&gt;&lt;br&gt;&lt;/div&gt;&lt;div&gt;&lt;br&gt;&lt;div style=&quot;&quot;&gt;&lt;br&gt;&lt;/div&gt;&lt;/div&gt;" style="align=center;strokeColor=none;fillColor=none;spacingLeft=4;fontSize=12;verticalAlign=top;resizable=0;rotatable=0;part=1;html=1;" parent="ZalBxmQH-GRY2DC9P5CH-5" vertex="1">
          <mxGeometry y="50" width="160" height="90" as="geometry" />
        </mxCell>
        <mxCell id="ZalBxmQH-GRY2DC9P5CH-28" style="edgeStyle=orthogonalEdgeStyle;rounded=0;orthogonalLoop=1;jettySize=auto;html=1;exitX=0.5;exitY=1;exitDx=0;exitDy=0;" parent="ZalBxmQH-GRY2DC9P5CH-5" source="ZalBxmQH-GRY2DC9P5CH-7" target="ZalBxmQH-GRY2DC9P5CH-7" edge="1">
          <mxGeometry relative="1" as="geometry" />
        </mxCell>
        <mxCell id="ZalBxmQH-GRY2DC9P5CH-9" value="Product" style="swimlane;childLayout=stackLayout;horizontal=1;startSize=50;horizontalStack=0;rounded=1;fontSize=14;fontStyle=0;strokeWidth=2;resizeParent=0;resizeLast=1;shadow=0;dashed=0;align=center;arcSize=4;whiteSpace=wrap;html=1;" parent="1" vertex="1">
          <mxGeometry x="600" y="110" width="170" height="165" as="geometry" />
        </mxCell>
        <mxCell id="ZalBxmQH-GRY2DC9P5CH-10" value="&lt;div&gt;&lt;b style=&quot;font-size: 13px;&quot;&gt;&lt;u&gt;&lt;font style=&quot;font-size: 13px;&quot;&gt;product id &lt;br&gt;&lt;/font&gt;&lt;/u&gt;&lt;/b&gt;&lt;/div&gt;&lt;div&gt;&lt;span style=&quot;font-size: 13px;&quot;&gt;&lt;font style=&quot;font-size: 13px;&quot;&gt;name&lt;br&gt;&lt;/font&gt;&lt;/span&gt;&lt;/div&gt;&lt;div&gt;&lt;span style=&quot;font-size: 13px;&quot;&gt;&lt;font style=&quot;font-size: 13px;&quot;&gt;company&lt;br&gt;&lt;/font&gt;&lt;/span&gt;&lt;/div&gt;&lt;div&gt;&lt;span style=&quot;font-size: 13px;&quot;&gt;&lt;font style=&quot;font-size: 13px;&quot;&gt;price&lt;br&gt;&lt;/font&gt;&lt;/span&gt;&lt;/div&gt;&lt;div style=&quot;font-size: 13px;&quot;&gt;supplier id&lt;br&gt;&lt;div&gt;genre&lt;/div&gt;&lt;div&gt;stock&lt;/div&gt;&lt;div&gt;&lt;br&gt;&lt;/div&gt;&lt;/div&gt;" style="align=center;strokeColor=none;fillColor=none;spacingLeft=4;fontSize=12;verticalAlign=top;resizable=0;rotatable=0;part=1;html=1;" parent="ZalBxmQH-GRY2DC9P5CH-9" vertex="1">
          <mxGeometry y="50" width="170" height="115" as="geometry" />
        </mxCell>
        <mxCell id="ZalBxmQH-GRY2DC9P5CH-31" style="edgeStyle=orthogonalEdgeStyle;rounded=0;orthogonalLoop=1;jettySize=auto;html=1;exitX=1;exitY=0.5;exitDx=0;exitDy=0;endArrow=none;endFill=0;" parent="1" source="ZalBxmQH-GRY2DC9P5CH-11" edge="1">
          <mxGeometry relative="1" as="geometry">
            <mxPoint x="600" y="202" as="targetPoint" />
          </mxGeometry>
        </mxCell>
        <mxCell id="ZalBxmQH-GRY2DC9P5CH-11" value="Buys" style="shape=rhombus;perimeter=rhombusPerimeter;whiteSpace=wrap;html=1;align=center;" parent="1" vertex="1">
          <mxGeometry x="400" y="172" width="80" height="60" as="geometry" />
        </mxCell>
        <mxCell id="ZalBxmQH-GRY2DC9P5CH-12" value="Orders" style="swimlane;childLayout=stackLayout;horizontal=1;startSize=50;horizontalStack=0;rounded=1;fontSize=14;fontStyle=0;strokeWidth=2;resizeParent=0;resizeLast=1;shadow=0;dashed=0;align=center;arcSize=4;whiteSpace=wrap;html=1;" parent="1" vertex="1">
          <mxGeometry x="60" y="404" width="160" height="126" as="geometry" />
        </mxCell>
        <mxCell id="ZalBxmQH-GRY2DC9P5CH-13" value="&lt;div&gt;&lt;b style=&quot;font-size: 13px;&quot;&gt;&lt;u&gt;&lt;font style=&quot;font-size: 13px;&quot;&gt;order id.&lt;/font&gt;&lt;/u&gt;&lt;/b&gt;&lt;/div&gt;&lt;div&gt;&lt;span style=&quot;font-size: 13px;&quot;&gt;&lt;font style=&quot;font-size: 13px;&quot;&gt;cost&lt;br&gt;&lt;/font&gt;&lt;/span&gt;&lt;/div&gt;&lt;div&gt;&lt;span style=&quot;font-size: 13px;&quot;&gt;&lt;font style=&quot;font-size: 13px;&quot;&gt;products&lt;br&gt;&lt;/font&gt;&lt;/span&gt;&lt;/div&gt;&lt;div style=&quot;font-size: 13px;&quot;&gt;customer id.&lt;/div&gt;" style="align=center;strokeColor=none;fillColor=none;spacingLeft=4;fontSize=12;verticalAlign=top;resizable=0;rotatable=0;part=1;html=1;" parent="ZalBxmQH-GRY2DC9P5CH-12" vertex="1">
          <mxGeometry y="50" width="160" height="76" as="geometry" />
        </mxCell>
        <mxCell id="ZalBxmQH-GRY2DC9P5CH-14" value="Shipping Info" style="swimlane;childLayout=stackLayout;horizontal=1;startSize=50;horizontalStack=0;rounded=1;fontSize=14;fontStyle=0;strokeWidth=2;resizeParent=0;resizeLast=1;shadow=0;dashed=0;align=center;arcSize=4;whiteSpace=wrap;html=1;" parent="1" vertex="1">
          <mxGeometry x="389" y="401" width="160" height="138" as="geometry" />
        </mxCell>
        <mxCell id="ZalBxmQH-GRY2DC9P5CH-15" value="&lt;div&gt;&lt;font style=&quot;font-size: 13px;&quot;&gt;&lt;b&gt;&lt;u&gt;shipping_id&lt;/u&gt;&lt;/b&gt;.&lt;/font&gt;&lt;/div&gt;&lt;div&gt;&lt;font style=&quot;font-size: 13px;&quot;&gt;products&lt;br&gt;&lt;/font&gt;&lt;/div&gt;&lt;div&gt;shipping_address&lt;/div&gt;&lt;div&gt;shipping_date&lt;/div&gt;&lt;div&gt;delivery_date&lt;/div&gt;" style="align=center;strokeColor=none;fillColor=none;spacingLeft=4;fontSize=12;verticalAlign=top;resizable=0;rotatable=0;part=1;html=1;" parent="ZalBxmQH-GRY2DC9P5CH-14" vertex="1">
          <mxGeometry y="50" width="160" height="88" as="geometry" />
        </mxCell>
        <mxCell id="ZalBxmQH-GRY2DC9P5CH-16" value="Supplier" style="swimlane;childLayout=stackLayout;horizontal=1;startSize=50;horizontalStack=0;rounded=1;fontSize=14;fontStyle=0;strokeWidth=2;resizeParent=0;resizeLast=1;shadow=0;dashed=0;align=center;arcSize=4;whiteSpace=wrap;html=1;" parent="1" vertex="1">
          <mxGeometry x="657" y="404" width="160" height="119" as="geometry" />
        </mxCell>
        <mxCell id="ZalBxmQH-GRY2DC9P5CH-17" value="&lt;b style=&quot;font-size: 13px;&quot;&gt;&lt;u&gt;&lt;font style=&quot;font-size: 13px;&quot;&gt;supplier_id.&lt;/font&gt;&lt;/u&gt;&lt;/b&gt;&lt;div style=&quot;font-size: 13px;&quot;&gt;product_id&lt;/div&gt;&lt;div&gt;address&lt;/div&gt;&lt;div&gt;moq&lt;/div&gt;" style="align=center;strokeColor=none;fillColor=none;spacingLeft=4;fontSize=12;verticalAlign=top;resizable=0;rotatable=0;part=1;html=1;" parent="ZalBxmQH-GRY2DC9P5CH-16" vertex="1">
          <mxGeometry y="50" width="160" height="69" as="geometry" />
        </mxCell>
        <mxCell id="ZalBxmQH-GRY2DC9P5CH-19" value="Supply" style="shape=rhombus;perimeter=rhombusPerimeter;whiteSpace=wrap;html=1;align=center;" parent="1" vertex="1">
          <mxGeometry x="640" y="319" width="80" height="40" as="geometry" />
        </mxCell>
        <mxCell id="ZalBxmQH-GRY2DC9P5CH-21" value="Deliver" style="shape=rhombus;perimeter=rhombusPerimeter;whiteSpace=wrap;html=1;align=center;" parent="1" vertex="1">
          <mxGeometry x="275" y="442" width="60" height="49" as="geometry" />
        </mxCell>
        <mxCell id="ZalBxmQH-GRY2DC9P5CH-39" value="" style="line;strokeWidth=1;rotatable=0;dashed=0;labelPosition=right;align=left;verticalAlign=middle;spacingTop=0;spacingLeft=6;points=[];portConstraint=eastwest;" parent="1" vertex="1">
          <mxGeometry x="280" y="197" width="120" height="10" as="geometry" />
        </mxCell>
        <mxCell id="ZalBxmQH-GRY2DC9P5CH-40" value="" style="line;strokeWidth=1;rotatable=0;dashed=0;labelPosition=right;align=left;verticalAlign=middle;spacingTop=0;spacingLeft=6;points=[];portConstraint=eastwest;" parent="1" vertex="1">
          <mxGeometry x="219" y="461" width="58" height="10" as="geometry" />
        </mxCell>
        <mxCell id="ZalBxmQH-GRY2DC9P5CH-41" value="" style="line;strokeWidth=1;rotatable=0;dashed=0;labelPosition=right;align=left;verticalAlign=middle;spacingTop=0;spacingLeft=6;points=[];portConstraint=eastwest;" parent="1" vertex="1">
          <mxGeometry x="335" y="461" width="54" height="10" as="geometry" />
        </mxCell>
        <mxCell id="ZalBxmQH-GRY2DC9P5CH-45" value="" style="endArrow=none;html=1;rounded=0;endFill=0;entryX=0.488;entryY=1.017;entryDx=0;entryDy=0;entryPerimeter=0;" parent="1" target="ZalBxmQH-GRY2DC9P5CH-11" edge="1">
          <mxGeometry width="50" height="50" relative="1" as="geometry">
            <mxPoint x="157" y="402" as="sourcePoint" />
            <mxPoint x="440" y="231" as="targetPoint" />
          </mxGeometry>
        </mxCell>
        <mxCell id="ZalBxmQH-GRY2DC9P5CH-46" value="" style="endArrow=none;html=1;rounded=0;entryX=0.05;entryY=0.45;entryDx=0;entryDy=0;entryPerimeter=0;endFill=0;" parent="1" target="ZalBxmQH-GRY2DC9P5CH-19" edge="1">
          <mxGeometry width="50" height="50" relative="1" as="geometry">
            <mxPoint x="467" y="399" as="sourcePoint" />
            <mxPoint x="517" y="349" as="targetPoint" />
          </mxGeometry>
        </mxCell>
        <mxCell id="ZalBxmQH-GRY2DC9P5CH-47" value="" style="endArrow=none;html=1;rounded=0;entryX=0.475;entryY=0.975;entryDx=0;entryDy=0;entryPerimeter=0;endFill=0;" parent="1" target="ZalBxmQH-GRY2DC9P5CH-19" edge="1">
          <mxGeometry width="50" height="50" relative="1" as="geometry">
            <mxPoint x="736" y="404" as="sourcePoint" />
            <mxPoint x="786" y="354" as="targetPoint" />
          </mxGeometry>
        </mxCell>
        <mxCell id="ZalBxmQH-GRY2DC9P5CH-49" value="" style="endArrow=none;html=1;rounded=0;endFill=0;dashed=1;" parent="1" edge="1">
          <mxGeometry width="50" height="50" relative="1" as="geometry">
            <mxPoint x="439" y="170" as="sourcePoint" />
            <mxPoint x="440" y="100" as="targetPoint" />
          </mxGeometry>
        </mxCell>
        <mxCell id="ZalBxmQH-GRY2DC9P5CH-50" value="Review" style="rounded=1;arcSize=10;whiteSpace=wrap;html=1;align=center;" parent="1" vertex="1">
          <mxGeometry x="396" y="66" width="90" height="30" as="geometry" />
        </mxCell>
        <mxCell id="3uzZX8caUjZ8ce4OJM4Q-1" value="" style="endArrow=none;html=1;rounded=0;dashed=1;" parent="1" edge="1">
          <mxGeometry width="50" height="50" relative="1" as="geometry">
            <mxPoint x="722" y="339" as="sourcePoint" />
            <mxPoint x="772" y="339" as="targetPoint" />
          </mxGeometry>
        </mxCell>
        <mxCell id="3uzZX8caUjZ8ce4OJM4Q-3" value="Quantity" style="rounded=1;arcSize=10;whiteSpace=wrap;html=1;align=center;" parent="1" vertex="1">
          <mxGeometry x="754" y="325" width="90" height="30" as="geometry" />
        </mxCell>
        <mxCell id="183Icf0CfkP7b161mnRV-1" value="" style="endArrow=none;html=1;rounded=0;endFill=0;" parent="1" edge="1">
          <mxGeometry width="50" height="50" relative="1" as="geometry">
            <mxPoint x="680" y="320" as="sourcePoint" />
            <mxPoint x="681" y="280" as="targetPoint" />
          </mxGeometry>
        </mxCell>
      </root>
    </mxGraphModel>
  </diagram>
</mxfile>
